<svg width="24" height="24" viewBox="0 0 24 24" fill="none" xmlns="http://www.w3.org/2000/svg">
<path fill-rule="evenodd" clip-rule="evenodd" d="M20 12C20 16.4183 16.4183 20 12 20C7.58172 20 4 16.4183 4 12C4 7.58172 7.58172 4 12 4C16.4183 4 20 7.58172 20 12ZM12.4444 11.8156V7.52886C12.4444 7.2834 12.2454 7.08442 11.9999 7.08442C11.7545 7.08442 11.5555 7.2834 11.5555 7.52886V11.9733C11.5555 11.9781 11.5556 11.9829 11.5557 11.9877C11.5526 12.1055 11.5959 12.2242 11.6857 12.3141L14.1999 14.8282C14.3735 15.0018 14.6549 15.0018 14.8284 14.8282C15.002 14.6546 15.002 14.3732 14.8284 14.1997L12.4444 11.8156Z" fill="#374151"/>
</svg>
