<svg width="24" height="24" viewBox="0 0 24 24" fill="none" xmlns="http://www.w3.org/2000/svg">
<path fill-rule="evenodd" clip-rule="evenodd" d="M20 12C20 16.4183 16.4183 20 12 20C7.58172 20 4 16.4183 4 12C4 7.58172 7.58172 4 12 4C16.4183 4 20 7.58172 20 12ZM13.0417 8.04167C13.0417 8.61696 12.5753 9.08333 12 9.08333C11.4247 9.08333 10.9583 8.61696 10.9583 8.04167C10.9583 7.46637 11.4247 7 12 7C12.5753 7 13.0417 7.46637 13.0417 8.04167ZM12.8333 17V10.3333H11.1667V17H12.8333Z" fill="#374151"/>
</svg>
