<svg width="33" height="32" viewBox="0 0 33 32" fill="none" xmlns="http://www.w3.org/2000/svg">
<path d="M32.3013 17.4161C31.0165 18.6948 29.2414 18.3883 27.9625 17.1038C27.9625 17.1038 27.9625 17.1038 27.9623 17.1036L17.6123 6.70709L22.4624 1.83601C23.867 0.425247 26.2501 0.862027 27.0628 2.67931L32.4586 16.7343C32.5473 16.9652 32.4914 17.2268 32.316 17.4015L28.9079 20.7935L32.3011 17.4161H32.3013Z" fill="#472459"/>
<path d="M27.9622 17.1038C27.9622 17.1038 27.9622 17.1038 27.962 17.1036L14.4235 3.50405C13.1444 2.21934 11.0661 2.21452 9.78103 3.49325L1.46676 11.7684C0.181708 13.0473 0.177082 15.1254 1.45596 16.4103L14.9943 30.0096C16.2734 31.2943 18.3517 31.2991 19.6368 30.0204L22.3102 27.3596L23.0934 26.5801L20.5945 24.072C18.7461 25.2702 16.2497 25.057 14.634 23.4313L12.9335 21.7202C12.6918 21.477 12.6929 21.0878 12.9362 20.8461L13.7731 20.0146L11.6714 17.8999C11.3419 17.5683 11.2903 17.0352 11.5874 16.6763C11.9272 16.2641 12.5402 16.2449 12.9096 16.6165L15.0379 18.758L16.7063 17.1003L14.6047 14.9856C14.2752 14.6541 14.2236 14.1209 14.5233 13.7595C14.8657 13.3501 15.4762 13.3281 15.8456 13.6998L17.9739 15.8412L18.8134 15.007C19.0567 14.7653 19.4459 14.7665 19.6876 15.0097L21.3881 16.7208C23.004 18.3467 23.2012 20.8444 21.9908 22.685L24.4886 25.1917L25.912 23.775L27.951 21.7455L32.3008 17.4162C31.016 18.695 29.2409 18.3885 27.9618 17.104L27.9622 17.1038Z" fill="url(#paint0_linear_177_3651)"/>
<defs>
<linearGradient id="paint0_linear_177_3651" x1="16.4004" y1="2.53735" x2="16.4004" y2="30.9763" gradientUnits="userSpaceOnUse">
<stop stop-color="#FFCA4A"/>
<stop offset="1" stop-color="#F7931A"/>
</linearGradient>
</defs>
</svg>
